<svg width="1200" height="900" viewBox="0 0 1200 900" fill="none" xmlns="http://www.w3.org/2000/svg">
  <rect width="1200" height="900" rx="48" fill="url(#bg)"/>
  <rect x="316" y="228" width="568" height="444" rx="56" fill="#ECFEFF" fill-opacity="0.9"/>
  <rect x="378" y="290" width="444" height="320" rx="40" fill="#155E75"/>
  <path d="M438 338H480V562H438V338Z" fill="#67E8F9"/>
  <path d="M518 338H560V562H518V338Z" fill="#67E8F9"/>
  <path d="M598 338H640V562H598V338Z" fill="#67E8F9"/>
  <path d="M678 338H720V562H678V338Z" fill="#67E8F9"/>
  <path d="M758 338H800V562H758V338Z" fill="#67E8F9"/>
  <path d="M312 414H190C162 414 140 436 140 464C140 492 162 514 190 514H312V414Z" fill="#083344"/>
  <path d="M888 372H1002C1034 372 1060 398 1060 430C1060 462 1034 488 1002 488H888V372Z" fill="#083344"/>
  <rect x="98" y="98" width="250" height="70" rx="35" fill="white" fill-opacity="0.18"/>
  <text x="136" y="143" fill="white" font-size="34" font-family="Arial, sans-serif" font-weight="700">COOLING</text>
  <defs>
    <linearGradient id="bg" x1="88" y1="84" x2="1112" y2="834" gradientUnits="userSpaceOnUse">
      <stop stop-color="#22D3EE"/>
      <stop offset="1" stop-color="#0E7490"/>
    </linearGradient>
  </defs>
</svg>
