<svg width="1200" height="900" viewBox="0 0 1200 900" fill="none" xmlns="http://www.w3.org/2000/svg">
  <rect width="1200" height="900" rx="48" fill="url(#bg)"/>
  <rect x="320" y="280" width="560" height="300" rx="72" fill="#F8FAFC" fill-opacity="0.88"/>
  <rect x="420" y="220" width="180" height="90" rx="30" fill="#0F172A"/>
  <rect x="604" y="220" width="180" height="90" rx="30" fill="#1E293B"/>
  <rect x="456" y="340" width="92" height="170" rx="24" fill="#F59E0B"/>
  <rect x="652" y="340" width="92" height="170" rx="24" fill="#F59E0B"/>
  <circle cx="600" cy="430" r="46" fill="#0F172A"/>
  <path d="M278 410H352V470H278C254 470 234 450 234 426C234 404 252 410 278 410Z" fill="#0F172A"/>
  <path d="M848 430C848 419 857 410 868 410H942C968 410 986 428 986 454C986 480 968 498 942 498H868C857 498 848 489 848 478V430Z" fill="#0F172A"/>
  <rect x="92" y="96" width="230" height="70" rx="35" fill="white" fill-opacity="0.18"/>
  <text x="130" y="141" fill="white" font-size="34" font-family="Arial, sans-serif" font-weight="700">ENGINE KIT</text>
  <defs>
    <linearGradient id="bg" x1="88" y1="66" x2="1098" y2="838" gradientUnits="userSpaceOnUse">
      <stop stop-color="#FBBF24"/>
      <stop offset="1" stop-color="#B45309"/>
    </linearGradient>
  </defs>
</svg>
